HIERARCHY 
ROOT Hip 
{ 
	OFFSET 0.000000 -0.000253 0.000039 
	CHANNELS 6 Xposition Yposition Zposition Zrotation Yrotation Xrotation 
	JOINT Abdomen 
	{ 
		OFFSET 0.000000 0.000317 0.023017 
		CHANNELS 6 Xposition Yposition Zposition Zrotation Xrotation Yrotation 
		JOINT Chest 
		{ 
			OFFSET 0.000000 0.000262 0.013024 
			CHANNELS 6 Xposition Yposition Zposition Zrotation Xrotation Yrotation 
			JOINT Neck 
			{ 
				OFFSET 0.000000 0.001908 0.024722 
				CHANNELS 6 Xposition Yposition Zposition Zrotation Xrotation Yrotation 
				JOINT Head 
				{ 
					OFFSET -0.000271 -0.001525 0.007832 
					CHANNELS 6 Xposition Yposition Zposition Zrotation Xrotation Yrotation 
					End Site 
					{ 
						OFFSET 0.001112 0.000000 0.000000 
					} 
				} 
			} 
			JOINT RightShoulder 
			{ 
				OFFSET -0.002983 0.004960 0.021533 
				CHANNELS 6 Xposition Yposition Zposition Zrotation Xrotation Yrotation 
				JOINT RightArm 
				{ 
					OFFSET -0.009761 -0.001580 -0.002204 
					CHANNELS 6 Xposition Yposition Zposition Zrotation Xrotation Yrotation 
					JOINT RightForeArm 
					{ 
						OFFSET -0.031330 -0.000501 -0.001914 
						CHANNELS 6 Xposition Yposition Zposition Zrotation Xrotation Yrotation 
						JOINT RHand 
						{ 
							OFFSET -0.025118 -0.007880 0.000690 
							CHANNELS 6 Xposition Yposition Zposition Zrotation Xrotation Yrotation 
							End Site 
							{ 
								OFFSET -0.001982 -0.001562 -0.001348 
							} 
						} 
					} 
				} 
			} 
			JOINT LeftShoulder 
			{ 
				OFFSET 0.002983 0.004960 0.021533 
				CHANNELS 6 Xposition Yposition Zposition Zrotation Xrotation Yrotation 
				JOINT LeftArm 
				{ 
					OFFSET 0.009761 -0.001580 -0.002204 
					CHANNELS 6 Xposition Yposition Zposition Zrotation Xrotation Yrotation 
					JOINT LeftForeArm 
					{ 
						OFFSET 0.031330 -0.000501 -0.001914 
						CHANNELS 6 Xposition Yposition Zposition Zrotation Xrotation Yrotation 
						JOINT LHand 
						{ 
							OFFSET 0.025118 -0.007880 0.000690 
							CHANNELS 6 Xposition Yposition Zposition Zrotation Xrotation Yrotation 
							End Site 
							{ 
								OFFSET 0.001982 -0.001562 -0.001348 
							} 
						} 
					} 
				} 
			} 
		} 
	} 
	JOINT RHipJoint 
	{ 
		OFFSET -0.009761 -0.001460 0.004808 
		CHANNELS 6 Xposition Yposition Zposition Zrotation Xrotation Yrotation 
		JOINT RightUpLeg 
		{ 
			OFFSET 0.000000 0.002481 -0.001845 
			CHANNELS 6 Xposition Yposition Zposition Zrotation Xrotation Yrotation 
			JOINT RightLeg 
			{ 
				OFFSET 0.000000 0.000069 -0.040952 
				CHANNELS 6 Xposition Yposition Zposition Zrotation Xrotation Yrotation 
				JOINT RightFoot 
				{ 
					OFFSET 0.000813 0.006774 -0.050028 
					CHANNELS 6 Xposition Yposition Zposition Zrotation Xrotation Yrotation 
					End Site 
					{ 
						OFFSET -0.001248 -0.013367 -0.004403 
					} 
				} 
			} 
		} 
	} 
	JOINT LHipJoint 
	{ 
		OFFSET 0.009761 -0.001460 0.004808 
		CHANNELS 6 Xposition Yposition Zposition Zrotation Xrotation Yrotation 
		JOINT LeftUpLeg 
		{ 
			OFFSET 0.000000 0.002481 -0.001845 
			CHANNELS 6 Xposition Yposition Zposition Zrotation Xrotation Yrotation 
			JOINT LeftLeg 
			{ 
				OFFSET 0.000000 0.000069 -0.040952 
				CHANNELS 6 Xposition Yposition Zposition Zrotation Xrotation Yrotation 
				JOINT LeftFoot 
				{ 
					OFFSET -0.000813 0.006774 -0.050028 
					CHANNELS 6 Xposition Yposition Zposition Zrotation Xrotation Yrotation 
					End Site 
					{ 
						OFFSET 0.001248 -0.013367 -0.004403 
					} 
				} 
			} 
		} 
	} 
} 
MOTION 
Frames: 4 
Frame Time: 0.041667 
40.1256                      1.109158                      1.402598                     91.774342                      8.076554                      1.690056                             0                      0.000318                      0.023017                      2.297569                      8.305488                     -5.994265                             0                      0.000262                      0.013024                      4.864716                      9.693727                      -4.53169                             0                      0.001908                      0.024722                     -5.144463                    -53.606986                     -0.397286                     -0.000271                     -0.001525                      0.007832                      96.16405                      8.025056                   -148.326546                     -0.002983                       0.00496                      0.021533                    -66.041263                     51.946095                     66.601721                     -0.009761                      -0.00158                     -0.002204                    106.372506                     34.997701                     -4.184603                      -0.03133                     -0.000501                     -0.001915                     -41.43229                    -34.724354                     50.005171                     -0.025118                      -0.00788                       0.00069                    -18.908998                     20.411966                     50.235512                      0.002983                       0.00496                      0.021533                     71.083295                     55.051731                    -74.361922                      0.009761                      -0.00158                     -0.002204                   -127.455264                     30.927592                     20.018093                       0.03133                     -0.000501                     -0.001914                     41.974227                    -38.367631                    -55.347161                      0.025117                      -0.00788                       0.00069                     27.494474                     37.259819                    -66.560651                     -0.009761                      -0.00146                      0.004808                    -25.153667                   -141.474132                      82.85488                             0                      0.002481                     -0.001845                    -28.339375                      20.53049                    113.530277                             0                       6.9e-05                     -0.040952                       0.99362                    -21.730757                      1.174401                      0.000813                      0.006774                     -0.050029                    158.091381                    -17.592272                    -57.728725                      0.009761                      -0.00146                      0.004808                     25.143149                   -141.464187                     -82.85389                             0                      0.002481                     -0.001845                     79.404938                     31.164702                   -113.321868                             0                       6.9e-05                     -0.040952                     -1.078305                    -31.123864                     -1.363942                     -0.000813                      0.006774                     -0.050028                   -153.412428                     -48.53947                     65.419285 
40.8236                      1.173858                      1.440498                     91.818588                      9.546605                      1.986353                             0                      0.000318                      0.023017                      2.284464                      7.580296                     -7.377506                             0                      0.000261                      0.013024                      5.123167                      9.351758                     -4.933236                             0                      0.001908                      0.024722                     -4.936985                    -52.858909                      0.369472                     -0.000271                     -0.001525                      0.007832                     95.892659                      8.064561                   -148.960415                     -0.002983                       0.00496                      0.021533                    -66.433685                     51.673916                     67.009654                     -0.009761                      -0.00158                     -0.002204                    105.979688                     35.966253                     -4.784888                      -0.03133                     -0.000501                     -0.001915                    -41.634791                    -35.804364                     51.573823                     -0.025118                      -0.00788                       0.00069                    -18.910758                     20.417683                     50.239996                      0.002983                       0.00496                      0.021533                     71.012432                     55.422815                    -74.363118                      0.009761                      -0.00158                     -0.002204                    -128.00478                     29.633776                     21.917619                      0.031329                     -0.000501                     -0.001914                     41.978186                    -38.410805                    -55.411371                      0.025118                      -0.00788                       0.00069                     27.041311                     36.679871                    -65.842668                     -0.009761                      -0.00146                      0.004808                     -25.15365                   -141.474132                     82.854894                             0                      0.002481                     -0.001845                    -27.173733                     17.779078                    113.895153                             0                       6.9e-05                     -0.040952                      1.015363                    -24.616138                      1.229476                      0.000813                      0.006774                     -0.050028                    156.986215                    -12.017469                    -56.668416                      0.009761                      -0.00146                      0.004808                     25.143146                   -141.464187                     -82.85389                             0                      0.002481                     -0.001845                     79.180423                     35.889195                   -112.459345                             0                       6.9e-05                     -0.040951                     -1.003258                    -23.060979                     -1.199539                     -0.000813                      0.006774                     -0.050028                   -150.156982                    -48.535953                     66.022869 
41.5255                      1.179558                      1.482898                     91.502084                     10.685656                       1.88377                             0                      0.000318                      0.023017                      2.290088                      7.140869                     -8.310654                             0                      0.000262                      0.013024                      5.332528                      9.213635                     -5.258618                             0                      0.001908                      0.024722                      -4.43271                    -52.498579                      1.318941                     -0.000271                     -0.001525                      0.007832                     95.529184                      7.022976                   -150.113488                     -0.002983                       0.00496                      0.021533                    -66.737724                     51.566282                     67.376326                     -0.009761                      -0.00158                     -0.002204                    105.816692                     36.974386                     -5.386226                      -0.03133                     -0.000501                     -0.001915                    -41.768393                    -36.645416                     52.803048                     -0.025118                      -0.00788                       0.00069                    -18.811543                      20.09067                     49.984137                      0.002983                       0.00496                      0.021533                     71.135389                     55.655701                     -74.53237                      0.009761                      -0.00158                     -0.002204                    -128.44086                     28.003407                     23.616834                       0.03133                     -0.000501                     -0.001915                     42.021178                     -38.93161                    -56.189617                      0.025118                      -0.00788                       0.00069                     26.473163                      35.92267                      -64.9298                     -0.009761                     -0.001459                      0.004808                    -25.153652                   -141.474132                     82.854901                             0                      0.002481                     -0.001845                    -26.335997                     15.943615                    114.066072                             0                       6.9e-05                     -0.040952                      1.044344                    -27.889261                      1.295035                      0.000813                      0.006774                     -0.050028                    153.784619                     -6.219537                    -55.885888                      0.009761                     -0.001459                      0.004808                     25.143168                   -141.464187                     -82.85389                             0                      0.002481                     -0.001845                     78.709918                     40.098039                   -111.668921                             0                       6.9e-05                     -0.040952                     -0.972663                    -18.376988                     -1.113232                     -0.000813                      0.006774                     -0.050028                   -146.659557                    -49.244322                     66.983126 
42.2277                      1.121658                      1.529498                      90.78419                     11.471889                      1.446248                             0                      0.000318                      0.023017                       2.34003                      6.873433                     -8.797929                             0                      0.000262                      0.013024                      5.508446                      9.242046                     -5.464368                             0                      0.001908                      0.024722                     -4.795329                    -51.837956                      0.313139                     -0.000271                     -0.001525                      0.007833                     95.891123                      7.597634                   -150.863702                     -0.002983                      0.004959                      0.021533                    -67.027891                     51.583002                     67.785222                     -0.009761                      -0.00158                     -0.002204                    105.872583                     37.949221                     -5.960952                      -0.03133                     -0.000501                     -0.001914                     -41.85291                    -37.264204                     53.712666                     -0.025118                      -0.00788                       0.00069                    -18.642718                     19.519292                     49.540554                      0.002983                       0.00496                      0.021533                     71.459891                     55.812703                     -74.88855                      0.009761                      -0.00158                     -0.002204                   -128.392229                     26.536892                     25.043657                       0.03133                     -0.000501                     -0.001915                     42.050357                    -39.367851                    -56.845151                      0.025118                      -0.00788                       0.00069                     25.769732                     34.934994                    -63.778018                     -0.009761                      -0.00146                      0.004808                    -25.153628                   -141.474132                     82.854901                             0                      0.002481                     -0.001845                    -26.410788                     13.926404                    113.938702                             0                       6.9e-05                     -0.040952                      1.104308                    -33.289027                      1.412648                      0.000813                      0.006774                     -0.050028                    150.649193                      -1.65471                    -55.368167                      0.009761                      -0.00146                      0.004808                     25.143147                   -141.464173                     -82.85389                             0                       0.00248                     -0.001845                     77.319401                     42.324036                   -110.610788                             0                       6.9e-05                     -0.040952                     -0.961285                    -16.210271                       -1.0749                     -0.000813                      0.006774                     -0.050028                    -145.33991                    -49.748769                     67.459306 
